<svg xmlns="http://www.w3.org/2000/svg" xmlns:xlink="http://www.w3.org/1999/xlink" width="500" zoomAndPan="magnify" viewBox="0 0 375 374.999991" height="500" preserveAspectRatio="xMidYMid meet" version="1.0"><defs><g/><clipPath id="0730bbb4ce"><path d="M 64 5.054688 L 311 5.054688 L 311 252.058594 L 64 252.058594 Z M 64 5.054688 " clip-rule="nonzero"/></clipPath></defs><g fill="#000932" fill-opacity="1"><g transform="translate(51.76007, 349.261123)"><g><path d="M 7.015625 0 L 13.355469 0 L 13.355469 -20.824219 C 13.355469 -28.898438 17.882812 -34.105469 24.671875 -34.105469 C 31.238281 -34.105469 35.386719 -29.125 35.386719 -21.355469 L 35.386719 0 L 41.726562 0 L 41.726562 -20.824219 C 41.726562 -28.898438 46.253906 -34.105469 53.046875 -34.105469 C 59.609375 -34.105469 63.757812 -29.125 63.757812 -21.355469 L 63.757812 0 L 70.097656 0 L 70.097656 -22.410156 C 70.097656 -33.351562 63.757812 -40.140625 53.875 -40.140625 C 47.535156 -40.140625 42.40625 -37.425781 39.3125 -32.445312 C 36.671875 -37.5 31.84375 -40.140625 25.578125 -40.140625 C 20.148438 -40.140625 15.769531 -38.105469 12.828125 -34.257812 L 12.222656 -39.160156 L 7.015625 -39.160156 Z M 7.015625 0 "/></g></g></g><g fill="#000932" fill-opacity="1"><g transform="translate(128.110917, 349.261123)"><g><path d="M 22.636719 0.980469 C 27.84375 0.980469 32.898438 -1.132812 36.292969 -5.734375 L 36.972656 0 L 42.179688 0 L 42.179688 -39.160156 L 35.839844 -39.160156 L 35.839844 -19.390625 C 35.839844 -10.867188 30.785156 -5.132812 23.464844 -5.132812 C 16.75 -5.132812 12.601562 -10.109375 12.601562 -17.957031 L 12.601562 -39.160156 L 6.261719 -39.160156 L 6.261719 -17.355469 C 6.261719 -6.1875 12.375 0.980469 22.636719 0.980469 Z M 22.636719 0.980469 "/></g></g></g><g fill="#000932" fill-opacity="1"><g transform="translate(177.301372, 349.261123)"><g><path d="M 22.636719 0.980469 C 27.84375 0.980469 32.898438 -1.132812 36.292969 -5.734375 L 36.972656 0 L 42.179688 0 L 42.179688 -39.160156 L 35.839844 -39.160156 L 35.839844 -19.390625 C 35.839844 -10.867188 30.785156 -5.132812 23.464844 -5.132812 C 16.75 -5.132812 12.601562 -10.109375 12.601562 -17.957031 L 12.601562 -39.160156 L 6.261719 -39.160156 L 6.261719 -17.355469 C 6.261719 -6.1875 12.375 0.980469 22.636719 0.980469 Z M 22.636719 0.980469 "/></g></g></g><g fill="#000932" fill-opacity="1"><g transform="translate(226.491828, 349.261123)"><g><path d="M 18.335938 0 L 24.449219 0 L 41.652344 -39.160156 L 34.785156 -39.160156 L 29.351562 -26.785156 L 21.429688 -8.449219 L 13.429688 -26.785156 L 8.074219 -39.160156 L 1.207031 -39.160156 Z M 18.335938 0 "/></g></g></g><g fill="#000932" fill-opacity="1"><g transform="translate(269.344866, 349.261123)"><g><path d="M 7.015625 0 L 13.355469 0 L 13.355469 -39.160156 L 7.015625 -39.160156 Z M 5.054688 -50.554688 C 5.054688 -47.761719 7.09375 -45.648438 10.1875 -45.648438 C 13.28125 -45.648438 15.242188 -47.761719 15.242188 -50.554688 C 15.242188 -53.421875 13.28125 -55.535156 10.1875 -55.535156 C 7.09375 -55.535156 5.054688 -53.421875 5.054688 -50.554688 Z M 5.054688 -50.554688 "/></g></g></g><g fill="#000932" fill-opacity="1"><g transform="translate(289.71516, 349.261123)"><g><path d="M 23.917969 0 L 29.804688 0 L 29.804688 -6.113281 L 24.222656 -6.113281 C 19.015625 -6.113281 16.601562 -8.753906 16.601562 -14.410156 L 16.601562 -33.351562 L 29.277344 -33.351562 L 29.277344 -39.160156 L 16.601562 -39.160156 L 16.601562 -48.894531 L 11.695312 -48.894531 L 11.09375 -43.613281 C 10.640625 -40.066406 9.582031 -39.160156 5.960938 -39.160156 L 2.039062 -39.160156 L 2.039062 -33.351562 L 10.261719 -33.351562 L 10.261719 -14.109375 C 10.261719 -5.132812 15.242188 0 23.917969 0 Z M 23.917969 0 "/></g></g></g><g clip-path="url(#0730bbb4ce)"><path fill="#f24855" d="M 139.582031 221.847656 C 137.902344 221.007812 136.765625 219.230469 136.765625 217.253906 C 136.765625 203.273438 142.496094 190.578125 151.636719 181.390625 C 153.019531 180.007812 154.648438 178.574219 156.230469 177.289062 C 158.402344 180.007812 160.183594 183.019531 161.464844 186.183594 C 160.527344 186.921875 159.6875 187.761719 158.847656 188.601562 C 152.082031 195.371094 147.683594 204.410156 147.042969 214.4375 C 151.339844 216.859375 154.648438 218.390625 157.8125 218.835938 C 160.824219 219.230469 164.183594 218.636719 168.679688 217.058594 L 168.679688 199.914062 C 168.679688 188.75 164.085938 178.574219 156.675781 171.261719 C 149.363281 163.851562 139.234375 159.359375 128.121094 159.359375 C 119.03125 159.359375 110.683594 162.371094 103.964844 167.3125 C 97.59375 172.101562 92.652344 178.625 89.933594 186.230469 C 94.824219 194.382812 100.703125 201.988281 107.375 208.707031 C 127.875 229.210938 156.277344 241.855469 187.550781 241.855469 C 195.058594 241.855469 202.417969 241.113281 209.730469 239.582031 C 216.003906 238.347656 222.078125 236.570312 228.105469 234.347656 L 228.105469 217.207031 C 228.105469 206.039062 223.511719 195.964844 216.101562 188.554688 C 208.792969 181.242188 198.664062 176.648438 187.550781 176.648438 C 184.4375 176.648438 181.472656 177.042969 178.558594 177.683594 C 177.175781 174.425781 175.445312 171.3125 173.421875 168.496094 C 177.917969 167.164062 182.609375 166.421875 187.550781 166.421875 C 195.402344 166.421875 202.914062 168.300781 209.582031 171.460938 C 213.78125 165.285156 219.3125 160.148438 225.6875 156.292969 C 233.292969 151.699219 242.1875 149.082031 251.621094 149.082031 C 261.75 149.082031 271.28125 152.097656 279.234375 157.332031 C 284.472656 160.789062 289.164062 165.1875 292.820312 170.375 C 297.957031 157.28125 300.773438 143.007812 300.773438 128.484375 C 300.773438 97.210938 288.128906 68.90625 267.628906 48.40625 C 247.125 27.902344 218.820312 15.257812 187.550781 15.257812 C 156.277344 15.257812 127.875 27.953125 107.375 48.453125 C 86.871094 68.957031 74.226562 97.261719 74.226562 128.53125 C 74.226562 145.03125 77.78125 160.640625 84.054688 174.820312 C 87.515625 168.742188 92.304688 163.410156 97.9375 159.160156 C 106.484375 152.886719 116.859375 149.132812 128.171875 149.132812 C 142.152344 149.132812 154.746094 154.863281 163.9375 164 C 173.125 173.140625 178.804688 185.933594 178.804688 199.867188 L 178.804688 220.464844 C 178.804688 222.640625 177.421875 224.566406 175.445312 225.257812 C 167.691406 228.417969 162.15625 229.554688 156.527344 228.8125 C 151.09375 228.171875 146.25 225.75 139.582031 221.847656 Z M 128.171875 93.804688 C 134.640625 93.804688 140.421875 96.421875 144.671875 100.570312 C 148.871094 104.769531 151.488281 110.699219 151.488281 117.070312 C 151.488281 123.542969 148.871094 129.324219 144.671875 133.570312 C 140.472656 137.769531 134.640625 140.386719 128.171875 140.386719 C 121.796875 140.386719 115.917969 137.769531 111.671875 133.570312 C 107.472656 129.371094 104.902344 123.542969 104.902344 117.070312 C 104.902344 110.699219 107.421875 104.820312 111.671875 100.570312 C 115.871094 96.421875 121.796875 93.804688 128.171875 93.804688 Z M 137.457031 107.734375 C 135.136719 105.414062 131.824219 103.980469 128.171875 103.980469 C 124.613281 103.980469 121.351562 105.363281 118.882812 107.734375 C 116.5625 110.15625 115.03125 113.464844 115.03125 117.023438 C 115.03125 120.675781 116.511719 123.9375 118.882812 126.308594 C 121.304688 128.632812 124.613281 130.164062 128.171875 130.164062 C 131.824219 130.164062 135.085938 128.679688 137.457031 126.308594 C 139.828125 123.9375 141.3125 120.675781 141.3125 117.023438 C 141.261719 113.464844 139.78125 110.15625 137.457031 107.734375 Z M 246.828125 93.804688 C 253.300781 93.804688 259.082031 96.421875 263.328125 100.570312 C 267.527344 104.769531 270.097656 110.699219 270.097656 117.070312 C 270.097656 123.542969 267.578125 129.324219 263.328125 133.570312 C 259.128906 137.769531 253.300781 140.386719 246.828125 140.386719 C 240.359375 140.386719 234.578125 137.769531 230.328125 133.570312 C 226.132812 129.371094 223.511719 123.542969 223.511719 117.070312 C 223.511719 110.699219 226.132812 104.820312 230.328125 100.570312 C 234.578125 96.421875 240.359375 93.804688 246.828125 93.804688 Z M 256.117188 107.734375 C 253.695312 105.414062 250.386719 103.980469 246.828125 103.980469 C 243.175781 103.980469 239.914062 105.363281 237.542969 107.734375 C 235.21875 110.15625 233.6875 113.464844 233.6875 117.023438 C 233.6875 120.675781 235.171875 123.9375 237.542969 126.308594 C 239.914062 128.679688 243.175781 130.164062 246.828125 130.164062 C 250.386719 130.164062 253.648438 128.679688 256.117188 126.308594 C 258.4375 123.988281 259.96875 120.675781 259.96875 117.023438 C 259.96875 113.464844 258.4375 110.15625 256.117188 107.734375 Z M 187.550781 110.746094 C 193.921875 110.746094 199.703125 113.367188 203.949219 117.566406 C 208.148438 121.765625 210.765625 127.59375 210.765625 134.066406 C 210.765625 140.4375 208.148438 146.21875 203.949219 150.464844 C 199.75 154.664062 193.921875 157.28125 187.550781 157.28125 C 181.078125 157.28125 175.296875 154.664062 171.050781 150.464844 C 166.851562 146.265625 164.234375 140.4375 164.234375 134.066406 C 164.234375 127.59375 166.851562 121.8125 171.050781 117.566406 C 175.296875 113.367188 181.078125 110.746094 187.550781 110.746094 Z M 196.738281 124.777344 C 194.414062 122.457031 191.105469 120.925781 187.550781 120.925781 C 183.894531 120.925781 180.632812 122.40625 178.261719 124.777344 C 175.839844 127.097656 174.410156 130.410156 174.410156 134.066406 C 174.410156 137.621094 175.792969 140.882812 178.261719 143.253906 C 180.585938 145.675781 183.894531 147.105469 187.550781 147.105469 C 191.105469 147.105469 194.367188 145.722656 196.738281 143.253906 C 199.160156 140.929688 200.589844 137.621094 200.589844 134.066406 C 200.589844 130.410156 199.160156 127.148438 196.738281 124.777344 Z M 218.175781 176.84375 C 220.054688 178.230469 221.734375 179.761719 223.316406 181.339844 C 232.503906 190.527344 238.183594 203.273438 238.183594 217.207031 L 238.183594 237.804688 C 238.183594 240.125 236.703125 242.101562 234.527344 242.695312 C 227.117188 245.808594 219.460938 248.03125 211.753906 249.613281 C 203.800781 251.191406 195.652344 252.03125 187.5 252.03125 C 153.316406 252.03125 122.488281 238.152344 100.109375 215.871094 C 77.882812 193.542969 64 162.71875 64 128.53125 C 64 94.445312 77.882812 63.621094 100.160156 41.242188 C 122.539062 18.960938 153.363281 5.082031 187.550781 5.082031 C 221.636719 5.082031 252.460938 18.960938 274.839844 41.242188 C 297.117188 63.621094 311 94.445312 311 128.53125 C 311 147.847656 306.503906 166.570312 298.15625 183.414062 C 297.957031 183.710938 297.859375 183.957031 297.710938 184.253906 C 297.316406 184.898438 297.070312 185.589844 296.675781 186.230469 C 287.484375 203.769531 274 219.03125 257.152344 230.542969 C 254.832031 232.125 251.71875 231.480469 250.140625 229.210938 C 248.558594 226.886719 249.101562 223.675781 251.472656 222.097656 C 266.933594 211.523438 279.285156 197.542969 287.734375 181.441406 C 284.570312 175.164062 279.679688 169.730469 273.753906 165.878906 C 267.378906 161.777344 259.773438 159.308594 251.671875 159.308594 C 244.0625 159.308594 236.949219 161.382812 230.972656 165.039062 C 225.835938 168.050781 221.535156 172.101562 218.175781 176.84375 Z M 218.175781 176.84375 " fill-opacity="1" fill-rule="nonzero"/></g></svg>